<svg width="66" height="66" viewBox="0 0 66 66" fill="none" xmlns="http://www.w3.org/2000/svg">
<rect width="66" height="66" fill="white"/>
<path d="M19.75 41.5V23.0833L36.75 20.25V38.6667M19.75 41.5C19.75 43.8472 17.8472 45.75 15.5 45.75C13.1528 45.75 11.25 43.8472 11.25 41.5C11.25 39.1528 13.1528 37.25 15.5 37.25C17.8472 37.25 19.75 39.1528 19.75 41.5ZM36.75 38.6667C36.75 41.0139 34.8472 42.9167 32.5 42.9167C30.1528 42.9167 28.25 41.0139 28.25 38.6667C28.25 36.3195 30.1528 34.4167 32.5 34.4167C34.8472 34.4167 36.75 36.3195 36.75 38.6667Z" stroke="#1E1E1E" stroke-width="4" stroke-linecap="round" stroke-linejoin="round"/>
<path d="M50.9196 20C53.5323 22.5198 55 25.937 55 29.5C55 33.063 53.5323 36.4802 50.9196 39M46 24.7433C47.3063 26.0032 48.0402 27.7118 48.0402 29.4933C48.0402 31.2748 47.3063 32.9834 46 34.2433" stroke="#1E1E1E" stroke-width="4" stroke-linecap="round" stroke-linejoin="round"/>
</svg>
