<svg width="66" height="66" viewBox="0 0 66 66" fill="none" xmlns="http://www.w3.org/2000/svg">
<path d="M19.75 41.5V23.0833L36.75 20.25V38.6667M19.75 41.5C19.75 43.8472 17.8472 45.75 15.5 45.75C13.1528 45.75 11.25 43.8472 11.25 41.5C11.25 39.1528 13.1528 37.25 15.5 37.25C17.8472 37.25 19.75 39.1528 19.75 41.5ZM36.75 38.6667C36.75 41.0139 34.8472 42.9167 32.5 42.9167C30.1528 42.9167 28.25 41.0139 28.25 38.6667C28.25 36.3195 30.1528 34.4167 32.5 34.4167C34.8472 34.4167 36.75 36.3195 36.75 38.6667Z" stroke="white" stroke-width="4" stroke-linecap="round" stroke-linejoin="round"/>
<path d="M59 24L47 36M47 24L59 36" stroke="white" stroke-width="4" stroke-linecap="round" stroke-linejoin="round"/>
</svg>
