<?xml version="1.0" encoding="utf-8"?>
<!-- Generator: Adobe Illustrator 22.1.0, SVG Export Plug-In . SVG Version: 6.00 Build 0)  -->
<svg version="1.1" id="Layer_1" xmlns="http://www.w3.org/2000/svg" xmlns:xlink="http://www.w3.org/1999/xlink" x="0px" y="0px"
	 viewBox="0 0 50 50" style="enable-background:new 0 0 50 50;" xml:space="preserve">
<style type="text/css">
	.st0{fill:#39B54A;}
</style>
<g>
	<path class="st0" d="M20.4,40.6c-0.2,0-0.4,0-0.5,0c-1.3-0.2-2.2-1.1-3.2-1.9c-1.4-1.1-2.7-2.2-4-3.4c-1.8-1.5-5.2-3.4-5.4-6
		c0-0.1,0-0.1,0-0.2c-0.2-3.1,3.6-4.7,5.8-2.8c2.5,2.2,5.3,4.6,7.2,6.1c1.8-2.3,5.5-7.6,13.1-19.7l0.5-0.7c1-1.6,3.2-2.1,4.8-1.1
		c1.6,1,2.1,3.2,1.1,4.8c0,0-0.5,0.7-0.5,0.7c-4.4,7-8.7,14.4-14,20.9C23.9,38.8,22.5,40.6,20.4,40.6z"/>
</g>
</svg>
