<svg version="1.1" xmlns="http://www.w3.org/2000/svg" viewBox="0 0 24 24"><path fill="#6B6C72" d="M12,2c5.5,0,10,4.5,10,10s-4.5,10-10,10S2,17.5,2,12S6.5,2,12,2z M12,20c4.4,0,8-3.6,8-8s-3.6-8-8-8s-8,3.6-8,8S7.6,20,12,20z M12,15c-0.6,0-1,0.4-1,1c0,0.6,0.4,1,1,1s1-0.4,1-1C13,15.4,12.6,15,12,15 M12,7c-1.4,0-2.6,0.9-2.9,2.3C9,9.8,9.3,10.4,9.8,10.5c0.5,0.1,1.1-0.2,1.2-0.7C11.1,9.3,11.6,9,12,9c0.6,0,1,0.4,1,1c0,0,0,0,0,0c0,0,0,0,0,0c0,0.2-0.1,0.4-0.3,0.4l-1.2,0.6C11.2,11.3,11,11.6,11,12v1c0,0.6,0.4,1,1,1s1-0.4,1-1v-0.4l0.6-0.3C14.5,11.9,15,11,15,10C15,8.3,13.7,7,12,7"/></svg>
