<?xml version="1.0" encoding="utf-8"?>
<!-- Generator: Adobe Illustrator 22.1.0, SVG Export Plug-In . SVG Version: 6.00 Build 0)  -->
<svg version="1.1" id="Layer_1" xmlns="http://www.w3.org/2000/svg" xmlns:xlink="http://www.w3.org/1999/xlink" x="0px" y="0px"
	 viewBox="0 0 50 50" style="enable-background:new 0 0 50 50;" xml:space="preserve">
<style type="text/css">
	.st0{fill:#F37230;}
</style>
<path class="st0" d="M28.3,24.7l10.6-10.6c0.9-0.9,0.9-2.4,0-3.3c-0.9-0.9-2.4-0.9-3.3,0L25,21.4L14.4,10.8c-0.9-0.9-2.4-0.9-3.3,0
	h0c-0.9,0.9-0.9,2.4,0,3.3l10.6,10.6L11.1,35.3c-0.9,0.9-0.9,2.4,0,3.3h0c0.9,0.9,2.4,0.9,3.3,0L25,28l10.6,10.6
	c0.9,0.9,2.4,0.9,3.3,0c0.9-0.9,0.9-2.4,0-3.3L28.3,24.7z"/>
</svg>
