<?xml version="1.0" encoding="utf-8"?>
<!-- Generator: Adobe Illustrator 22.1.0, SVG Export Plug-In . SVG Version: 6.00 Build 0)  -->
<svg version="1.1" id="Layer_1" xmlns="http://www.w3.org/2000/svg" xmlns:xlink="http://www.w3.org/1999/xlink" x="0px" y="0px"
	 viewBox="0 0 60 84" style="enable-background:new 0 0 60 84;" xml:space="preserve">
<style type="text/css">
	.st0{fill:#FFFFFF;stroke:#008481;stroke-width:4;stroke-linecap:round;stroke-linejoin:round;}
	.st1{opacity:0.15;fill:#00C1BF;enable-background:new    ;}
	.st2{fill:none;stroke:#00C1BF;stroke-width:2;stroke-linecap:round;stroke-miterlimit:10;}
	.st3{fill:none;stroke:#008481;stroke-width:2;stroke-linecap:round;stroke-linejoin:round;}
	.st4{fill:none;stroke:#57B520;stroke-width:4;stroke-linecap:round;stroke-linejoin:round;}
</style>
<path class="st0" d="M50.6,57.7V22.1C50.4,10.9,41.2,1.9,30,2C18.8,1.9,9.6,10.9,9.4,22.1v35.6H50.6z"/>
<path class="st0" d="M33.5,11.5c6.3,1.5,10.7,7.2,10.8,13.6v10.6c-0.5,4-2.4,7.6-3.2,11.6c-0.3,1.8-0.3,5.9,1.5,7.1
	c3.7,2.5,9.3,3.5,12,7.3c2.5,3.5,3.5,5.1,3.5,9.4l0,0C50.4,77.3,40.7,82,30,82S9.6,77.2,2,71.1c0-4.3,1-5.8,3.5-9.4
	c2.7-3.8,8.3-4.8,12-7.3c1.7-1.1,1.8-5.2,1.4-7.1c-0.8-4-3.1-7.4-3.2-11.6V24.9C24,25,31.3,19.5,33.5,11.5z"/>
<path class="st1" d="M44.3,64c0,5.2-2.4,10.1-6.5,13.3c5.9-1.5,11.5-4.2,16.3-7.9c-0.2-1.8-0.9-2.8-2.7-5.2
	c-1.1-1.5-3.5-2.6-5.9-3.7c-0.6-0.3-1.2-0.5-1.8-0.8C44.1,61,44.3,62.5,44.3,64z"/>
<path class="st2" d="M41.8,58.8c-6.6,6.4-17,6.4-23.6,0"/>
<path class="st3" d="M43.6,35.8c-0.1,6-5,10.8-11,10.8"/>
<line class="st4" x1="26.7" y1="46.5" x2="31.9" y2="46.5"/>
</svg>
